<svg xmlns="http://www.w3.org/2000/svg" viewBox="0 0 760 590" width="760" height="590" font-family="system-ui, -apple-system, 'Segoe UI', Roboto, Helvetica, Arial, sans-serif" role="img" aria-labelledby="t d">
<title id="t">CPU per conversion</title>
<desc id="d">UPER to JER: BSM 14.2k → 7.4k, PSM 37.8k → 20.7k, SPAT 413k → 215k, MAP 676k → 314k; UPER to XER: BSM 15.2k → 8.8k, PSM 39.2k → 23.1k, SPAT 436k → 250k, MAP 724k → 369k; JER to UPER: BSM 22.7k → 17.2k, PSM 62.5k → 47.3k, SPAT 636k → 466k, MAP 948k → 680k; XER to UPER: BSM 23.5k → 18.9k, PSM 64.9k → 53.4k, SPAT 689k → 556k, MAP 1.05M → 815k</desc>
<rect width="760" height="590" fill="#fcfcfb"/>
<text x="16" y="30" font-size="17" font-weight="600" fill="#0b0b0b">CPU per conversion</text>
<text x="16" y="50" font-size="12.5" fill="#52514e">CPU cycles per call, as a share of the original skeletons, with every update and the arena. Lower is better.</text>
<rect x="16" y="64" width="12" height="12" rx="3" fill="#2a78d6"/>
<text x="34" y="74.5" font-size="12.5" fill="#52514e">Original skeletons</text>
<rect x="175.0" y="64" width="12" height="12" rx="3" fill="#eb6834"/>
<text x="193.0" y="74.5" font-size="12.5" fill="#52514e">Updated skeletons</text>
<text x="16" y="110" font-size="13.5" font-weight="600" fill="#0b0b0b">UPER to JER</text>
<line x1="56" x2="374" y1="282.0" y2="282.0" stroke="#c3c2b7"/>
<text x="48" y="286.0" font-size="11.5" fill="#898781" text-anchor="end">0%</text>
<line x1="56" x2="374" y1="207.0" y2="207.0" stroke="#e1e0d9"/>
<text x="48" y="211.0" font-size="11.5" fill="#898781" text-anchor="end">50%</text>
<line x1="56" x2="374" y1="132.0" y2="132.0" stroke="#e1e0d9"/>
<text x="48" y="136.0" font-size="11.5" fill="#898781" text-anchor="end">100%</text>
<path d="M68.8,282.0 V136.0 Q68.8,132.0 72.8,132.0 H90.8 Q94.8,132.0 94.8,136.0 V282.0 Z" fill="#2a78d6"/>
<path d="M96.8,282.0 V207.4 Q96.8,203.4 100.8,203.4 H118.8 Q122.8,203.4 122.8,207.4 V282.0 Z" fill="#eb6834"/>
<text x="109.75" y="197.4" font-size="12" font-weight="600" fill="#0b0b0b" text-anchor="middle">52%</text>
<text x="95.75" y="301" font-size="12.5" font-weight="600" fill="#0b0b0b" text-anchor="middle">BSM</text>
<text x="95.75" y="317" font-size="11.5" fill="#898781" text-anchor="middle">14.2k → 7.4k</text>
<path d="M148.2,282.0 V136.0 Q148.2,132.0 152.2,132.0 H170.2 Q174.2,132.0 174.2,136.0 V282.0 Z" fill="#2a78d6"/>
<path d="M176.2,282.0 V203.7 Q176.2,199.7 180.2,199.7 H198.2 Q202.2,199.7 202.2,203.7 V282.0 Z" fill="#eb6834"/>
<text x="189.25" y="193.7" font-size="12" font-weight="600" fill="#0b0b0b" text-anchor="middle">55%</text>
<text x="175.25" y="301" font-size="12.5" font-weight="600" fill="#0b0b0b" text-anchor="middle">PSM</text>
<text x="175.25" y="317" font-size="11.5" fill="#898781" text-anchor="middle">37.8k → 20.7k</text>
<path d="M227.8,282.0 V136.0 Q227.8,132.0 231.8,132.0 H249.8 Q253.8,132.0 253.8,136.0 V282.0 Z" fill="#2a78d6"/>
<path d="M255.8,282.0 V207.9 Q255.8,203.9 259.8,203.9 H277.8 Q281.8,203.9 281.8,207.9 V282.0 Z" fill="#eb6834"/>
<text x="268.75" y="197.9" font-size="12" font-weight="600" fill="#0b0b0b" text-anchor="middle">52%</text>
<text x="254.75" y="301" font-size="12.5" font-weight="600" fill="#0b0b0b" text-anchor="middle">SPAT</text>
<text x="254.75" y="317" font-size="11.5" fill="#898781" text-anchor="middle">413k → 215k</text>
<path d="M307.2,282.0 V136.0 Q307.2,132.0 311.2,132.0 H329.2 Q333.2,132.0 333.2,136.0 V282.0 Z" fill="#2a78d6"/>
<path d="M335.2,282.0 V216.2 Q335.2,212.2 339.2,212.2 H357.2 Q361.2,212.2 361.2,216.2 V282.0 Z" fill="#eb6834"/>
<text x="348.25" y="206.2" font-size="12" font-weight="600" fill="#0b0b0b" text-anchor="middle">47%</text>
<text x="334.25" y="301" font-size="12.5" font-weight="600" fill="#0b0b0b" text-anchor="middle">MAP</text>
<text x="334.25" y="317" font-size="11.5" fill="#898781" text-anchor="middle">676k → 314k</text>
<text x="378" y="110" font-size="13.5" font-weight="600" fill="#0b0b0b">UPER to XER</text>
<line x1="418" x2="736" y1="282.0" y2="282.0" stroke="#c3c2b7"/>
<text x="410" y="286.0" font-size="11.5" fill="#898781" text-anchor="end">0%</text>
<line x1="418" x2="736" y1="207.0" y2="207.0" stroke="#e1e0d9"/>
<text x="410" y="211.0" font-size="11.5" fill="#898781" text-anchor="end">50%</text>
<line x1="418" x2="736" y1="132.0" y2="132.0" stroke="#e1e0d9"/>
<text x="410" y="136.0" font-size="11.5" fill="#898781" text-anchor="end">100%</text>
<path d="M430.8,282.0 V136.0 Q430.8,132.0 434.8,132.0 H452.8 Q456.8,132.0 456.8,136.0 V282.0 Z" fill="#2a78d6"/>
<path d="M458.8,282.0 V198.9 Q458.8,194.9 462.8,194.9 H480.8 Q484.8,194.9 484.8,198.9 V282.0 Z" fill="#eb6834"/>
<text x="471.75" y="188.9" font-size="12" font-weight="600" fill="#0b0b0b" text-anchor="middle">58%</text>
<text x="457.75" y="301" font-size="12.5" font-weight="600" fill="#0b0b0b" text-anchor="middle">BSM</text>
<text x="457.75" y="317" font-size="11.5" fill="#898781" text-anchor="middle">15.2k → 8.8k</text>
<path d="M510.2,282.0 V136.0 Q510.2,132.0 514.2,132.0 H532.2 Q536.2,132.0 536.2,136.0 V282.0 Z" fill="#2a78d6"/>
<path d="M538.2,282.0 V197.4 Q538.2,193.4 542.2,193.4 H560.2 Q564.2,193.4 564.2,197.4 V282.0 Z" fill="#eb6834"/>
<text x="551.25" y="187.4" font-size="12" font-weight="600" fill="#0b0b0b" text-anchor="middle">59%</text>
<text x="537.25" y="301" font-size="12.5" font-weight="600" fill="#0b0b0b" text-anchor="middle">PSM</text>
<text x="537.25" y="317" font-size="11.5" fill="#898781" text-anchor="middle">39.2k → 23.1k</text>
<path d="M589.8,282.0 V136.0 Q589.8,132.0 593.8,132.0 H611.8 Q615.8,132.0 615.8,136.0 V282.0 Z" fill="#2a78d6"/>
<path d="M617.8,282.0 V200.0 Q617.8,196.0 621.8,196.0 H639.8 Q643.8,196.0 643.8,200.0 V282.0 Z" fill="#eb6834"/>
<text x="630.75" y="190.0" font-size="12" font-weight="600" fill="#0b0b0b" text-anchor="middle">57%</text>
<text x="616.75" y="301" font-size="12.5" font-weight="600" fill="#0b0b0b" text-anchor="middle">SPAT</text>
<text x="616.75" y="317" font-size="11.5" fill="#898781" text-anchor="middle">436k → 250k</text>
<path d="M669.2,282.0 V136.0 Q669.2,132.0 673.2,132.0 H691.2 Q695.2,132.0 695.2,136.0 V282.0 Z" fill="#2a78d6"/>
<path d="M697.2,282.0 V209.5 Q697.2,205.5 701.2,205.5 H719.2 Q723.2,205.5 723.2,209.5 V282.0 Z" fill="#eb6834"/>
<text x="710.25" y="199.5" font-size="12" font-weight="600" fill="#0b0b0b" text-anchor="middle">51%</text>
<text x="696.25" y="301" font-size="12.5" font-weight="600" fill="#0b0b0b" text-anchor="middle">MAP</text>
<text x="696.25" y="317" font-size="11.5" fill="#898781" text-anchor="middle">724k → 369k</text>
<text x="16" y="356" font-size="13.5" font-weight="600" fill="#0b0b0b">JER to UPER</text>
<line x1="56" x2="374" y1="528.0" y2="528.0" stroke="#c3c2b7"/>
<text x="48" y="532.0" font-size="11.5" fill="#898781" text-anchor="end">0%</text>
<line x1="56" x2="374" y1="453.0" y2="453.0" stroke="#e1e0d9"/>
<text x="48" y="457.0" font-size="11.5" fill="#898781" text-anchor="end">50%</text>
<line x1="56" x2="374" y1="378.0" y2="378.0" stroke="#e1e0d9"/>
<text x="48" y="382.0" font-size="11.5" fill="#898781" text-anchor="end">100%</text>
<path d="M68.8,528.0 V382.0 Q68.8,378.0 72.8,378.0 H90.8 Q94.8,378.0 94.8,382.0 V528.0 Z" fill="#2a78d6"/>
<path d="M96.8,528.0 V418.5 Q96.8,414.5 100.8,414.5 H118.8 Q122.8,414.5 122.8,418.5 V528.0 Z" fill="#eb6834"/>
<text x="109.75" y="408.5" font-size="12" font-weight="600" fill="#0b0b0b" text-anchor="middle">76%</text>
<text x="95.75" y="547" font-size="12.5" font-weight="600" fill="#0b0b0b" text-anchor="middle">BSM</text>
<text x="95.75" y="563" font-size="11.5" fill="#898781" text-anchor="middle">22.7k → 17.2k</text>
<path d="M148.2,528.0 V382.0 Q148.2,378.0 152.2,378.0 H170.2 Q174.2,378.0 174.2,382.0 V528.0 Z" fill="#2a78d6"/>
<path d="M176.2,528.0 V418.6 Q176.2,414.6 180.2,414.6 H198.2 Q202.2,414.6 202.2,418.6 V528.0 Z" fill="#eb6834"/>
<text x="189.25" y="408.6" font-size="12" font-weight="600" fill="#0b0b0b" text-anchor="middle">76%</text>
<text x="175.25" y="547" font-size="12.5" font-weight="600" fill="#0b0b0b" text-anchor="middle">PSM</text>
<text x="175.25" y="563" font-size="11.5" fill="#898781" text-anchor="middle">62.5k → 47.3k</text>
<path d="M227.8,528.0 V382.0 Q227.8,378.0 231.8,378.0 H249.8 Q253.8,378.0 253.8,382.0 V528.0 Z" fill="#2a78d6"/>
<path d="M255.8,528.0 V422.2 Q255.8,418.2 259.8,418.2 H277.8 Q281.8,418.2 281.8,422.2 V528.0 Z" fill="#eb6834"/>
<text x="268.75" y="412.2" font-size="12" font-weight="600" fill="#0b0b0b" text-anchor="middle">73%</text>
<text x="254.75" y="547" font-size="12.5" font-weight="600" fill="#0b0b0b" text-anchor="middle">SPAT</text>
<text x="254.75" y="563" font-size="11.5" fill="#898781" text-anchor="middle">636k → 466k</text>
<path d="M307.2,528.0 V382.0 Q307.2,378.0 311.2,378.0 H329.2 Q333.2,378.0 333.2,382.0 V528.0 Z" fill="#2a78d6"/>
<path d="M335.2,528.0 V424.4 Q335.2,420.4 339.2,420.4 H357.2 Q361.2,420.4 361.2,424.4 V528.0 Z" fill="#eb6834"/>
<text x="348.25" y="414.4" font-size="12" font-weight="600" fill="#0b0b0b" text-anchor="middle">72%</text>
<text x="334.25" y="547" font-size="12.5" font-weight="600" fill="#0b0b0b" text-anchor="middle">MAP</text>
<text x="334.25" y="563" font-size="11.5" fill="#898781" text-anchor="middle">948k → 680k</text>
<text x="378" y="356" font-size="13.5" font-weight="600" fill="#0b0b0b">XER to UPER</text>
<line x1="418" x2="736" y1="528.0" y2="528.0" stroke="#c3c2b7"/>
<text x="410" y="532.0" font-size="11.5" fill="#898781" text-anchor="end">0%</text>
<line x1="418" x2="736" y1="453.0" y2="453.0" stroke="#e1e0d9"/>
<text x="410" y="457.0" font-size="11.5" fill="#898781" text-anchor="end">50%</text>
<line x1="418" x2="736" y1="378.0" y2="378.0" stroke="#e1e0d9"/>
<text x="410" y="382.0" font-size="11.5" fill="#898781" text-anchor="end">100%</text>
<path d="M430.8,528.0 V382.0 Q430.8,378.0 434.8,378.0 H452.8 Q456.8,378.0 456.8,382.0 V528.0 Z" fill="#2a78d6"/>
<path d="M458.8,528.0 V411.6 Q458.8,407.6 462.8,407.6 H480.8 Q484.8,407.6 484.8,411.6 V528.0 Z" fill="#eb6834"/>
<text x="471.75" y="401.6" font-size="12" font-weight="600" fill="#0b0b0b" text-anchor="middle">80%</text>
<text x="457.75" y="547" font-size="12.5" font-weight="600" fill="#0b0b0b" text-anchor="middle">BSM</text>
<text x="457.75" y="563" font-size="11.5" fill="#898781" text-anchor="middle">23.5k → 18.9k</text>
<path d="M510.2,528.0 V382.0 Q510.2,378.0 514.2,378.0 H532.2 Q536.2,378.0 536.2,382.0 V528.0 Z" fill="#2a78d6"/>
<path d="M538.2,528.0 V408.6 Q538.2,404.6 542.2,404.6 H560.2 Q564.2,404.6 564.2,408.6 V528.0 Z" fill="#eb6834"/>
<text x="551.25" y="398.6" font-size="12" font-weight="600" fill="#0b0b0b" text-anchor="middle">82%</text>
<text x="537.25" y="547" font-size="12.5" font-weight="600" fill="#0b0b0b" text-anchor="middle">PSM</text>
<text x="537.25" y="563" font-size="11.5" fill="#898781" text-anchor="middle">64.9k → 53.4k</text>
<path d="M589.8,528.0 V382.0 Q589.8,378.0 593.8,378.0 H611.8 Q615.8,378.0 615.8,382.0 V528.0 Z" fill="#2a78d6"/>
<path d="M617.8,528.0 V410.9 Q617.8,406.9 621.8,406.9 H639.8 Q643.8,406.9 643.8,410.9 V528.0 Z" fill="#eb6834"/>
<text x="630.75" y="400.9" font-size="12" font-weight="600" fill="#0b0b0b" text-anchor="middle">81%</text>
<text x="616.75" y="547" font-size="12.5" font-weight="600" fill="#0b0b0b" text-anchor="middle">SPAT</text>
<text x="616.75" y="563" font-size="11.5" fill="#898781" text-anchor="middle">689k → 556k</text>
<path d="M669.2,528.0 V382.0 Q669.2,378.0 673.2,378.0 H691.2 Q695.2,378.0 695.2,382.0 V528.0 Z" fill="#2a78d6"/>
<path d="M697.2,528.0 V415.4 Q697.2,411.4 701.2,411.4 H719.2 Q723.2,411.4 723.2,415.4 V528.0 Z" fill="#eb6834"/>
<text x="710.25" y="405.4" font-size="12" font-weight="600" fill="#0b0b0b" text-anchor="middle">78%</text>
<text x="696.25" y="547" font-size="12.5" font-weight="600" fill="#0b0b0b" text-anchor="middle">MAP</text>
<text x="696.25" y="563" font-size="11.5" fill="#898781" text-anchor="middle">1.05M → 815k</text>
</svg>
